<svg width="16" height="16" viewBox="0 0 16 16" fill="none" xmlns="http://www.w3.org/2000/svg">
<g clip-path="url(#clip0_647_11910)">
<path d="M14.7471 6.586L8.16374 0L7.22107 0.945333L13.8044 7.52867C13.9294 7.65369 13.9996 7.82323 13.9996 8C13.9996 8.17678 13.9294 8.34632 13.8044 8.47133L7.2124 15.0667L8.15507 16.0093L14.7471 9.41733C15.122 9.04228 15.3326 8.53366 15.3326 8.00333C15.3326 7.47301 15.122 6.96439 14.7471 6.58933V6.586Z" fill="#DBE1EB"/>
<path d="M9.02313 7.5287L1.5078 0.0126953L0.564462 0.955362L7.60913 8.00003L0.557129 15.052L1.4998 15.9954L9.02313 8.47136C9.14811 8.34634 9.21832 8.1768 9.21832 8.00003C9.21832 7.82325 9.14811 7.65371 9.02313 7.5287Z" fill="#DBE1EB"/>
</g>
<defs>
<clipPath id="clip0_647_11910">
<rect width="16" height="16" fill="white"/>
</clipPath>
</defs>
</svg>
