<svg width="16" height="16" viewBox="0 0 16 16" fill="none" xmlns="http://www.w3.org/2000/svg">
<g clip-path="url(#clip0_647_11908)">
<path d="M2.08049 7.52855L8.67515 0.933211L7.73315 -0.00878906L1.13782 6.58588C0.762877 6.96093 0.552246 7.46955 0.552246 7.99988C0.552246 8.53021 0.762877 9.03882 1.13782 9.41388L7.72782 16.0039L8.67049 15.0612L2.08115 8.47121C1.95608 8.34628 1.88575 8.17679 1.88563 8.00002C1.8855 7.82324 1.95559 7.65365 2.08049 7.52855V7.52855Z" fill="#DBE1EB"/>
<path d="M15.333 0.944666L14.3884 0L6.86169 7.52666C6.73671 7.65168 6.6665 7.82122 6.6665 7.99799C6.6665 8.17477 6.73671 8.34431 6.86169 8.46933L14.389 16L15.333 15.056L8.27569 7.99999L15.333 0.944666Z" fill="#DBE1EB"/>
</g>
<defs>
<clipPath id="clip0_647_11908">
<rect width="16" height="16" fill="white"/>
</clipPath>
</defs>
</svg>
