<svg width="315" height="48" viewBox="0 0 315 48" fill="none" xmlns="http://www.w3.org/2000/svg">
<path d="M11.9695 12.9779C11.7498 12.0748 11.8018 11.1198 11.9232 10.6251C12.2297 9.19846 13.2069 7.60499 16.0461 7.60499C18.6828 7.60499 20.2325 9.23298 20.2325 11.6721V14.4449H31.4676V11.2982C31.4618 1.55321 22.6322 0 16.2658 0C8.263 0 1.72893 2.64046 0.531977 9.95781C0.202383 11.9655 0.150341 13.7315 0.624495 15.9981C2.57315 25.1563 18.5787 27.8082 20.909 33.6011C21.3427 34.6769 21.2155 36.0633 20.9958 36.9089C20.6257 38.4161 19.608 39.9348 16.5954 39.9348C13.7794 39.9348 12.0967 38.3068 12.0967 35.8562L12.0794 31.5475H0V34.9703C0 44.9856 7.90449 48 16.3699 48C24.8352 48 31.1901 45.2387 32.2771 37.743C32.8207 33.8773 32.4101 31.3634 32.2309 30.4084C30.3285 21.0086 13.2532 18.2186 11.9695 12.9779ZM158.419 13.0872C158.217 12.2013 158.275 11.2637 158.379 10.7689C158.703 9.33653 159.668 7.77181 162.461 7.77181C165.063 7.77181 166.584 9.38255 166.584 11.8044V14.5427H177.686V11.419C177.686 1.76606 168.99 0.247363 162.687 0.247363C154.753 0.247363 148.277 2.84755 147.092 10.1131C146.779 12.092 146.699 13.8466 147.202 16.0844C149.133 25.139 164.977 27.768 167.278 33.4976C167.683 34.5849 167.567 35.9655 167.359 36.7824C167.012 38.2723 166.006 39.7737 163.016 39.7737C160.212 39.7737 158.529 38.1687 158.529 35.7526V31.4554H146.577V34.8725C146.577 44.7728 154.372 47.7641 162.774 47.7641C171.175 47.7641 177.461 45.0316 178.525 37.6165C179.034 33.7852 178.652 31.2943 178.444 30.3509C176.582 21.0604 159.692 18.2704 158.414 13.0815L158.419 13.0872ZM260.675 37.4957L250.07 1.42665H233.359V45.7622H244.415L243.773 8.53691L255.164 45.7622H271.193V1.42665H260.068L260.68 37.4957H260.675ZM48.2133 1.42665L39.8694 46.2282H52.0355L58.3209 4.75743L64.456 46.2282H76.5354L68.2261 1.42665H48.2076H48.2133ZM116.231 1.42665L110.547 36.4487L104.869 1.42665H86.4984L85.5269 46.2282H96.7794L97.0859 4.75743L104.828 46.2282H116.249L123.997 4.75743L124.303 46.2282H135.585L134.579 1.42665H116.231ZM220.875 1.42665H209.483V34.5676C209.501 35.1429 209.483 35.7929 209.385 36.2704C209.148 37.3806 208.2 39.5264 205.06 39.5264C201.92 39.5264 200.983 37.3864 200.764 36.2704C200.648 35.7929 200.636 35.1429 200.648 34.5676V1.42665H189.263V33.5379C189.251 34.3662 189.315 36.0575 189.361 36.5005C190.147 44.8706 196.774 47.5858 205.054 47.5858C213.334 47.5858 219.973 44.8706 220.776 36.5005C220.84 36.0575 220.921 34.3662 220.875 33.5379V1.42665ZM299.07 21.0777V27.6127H303.684V34.0959C303.695 34.6769 303.667 35.2982 303.568 35.7987C303.383 37.0067 302.233 39.0662 298.954 39.0662C295.675 39.0662 294.565 37.0067 294.369 35.7987C294.288 35.2982 294.253 34.6711 294.253 34.0959V13.6222C294.253 12.8974 294.305 12.1035 294.455 11.5053C294.681 10.4123 295.652 8.26079 298.931 8.26079C302.377 8.26079 303.233 10.5273 303.429 11.5053C303.557 12.1496 303.568 13.2311 303.568 13.2311V15.7162H314.907V14.2493C314.907 14.2493 314.96 12.7133 314.821 11.2867C313.971 2.88207 307.009 0.224353 299.029 0.224353C291.049 0.224353 284.215 2.90508 283.22 11.2867C283.128 12.0518 282.995 13.4324 282.995 14.2493V33.0834C282.995 33.906 283.024 34.5388 283.174 36.0403C283.914 44.2148 291.032 47.1083 298.994 47.1083C306.957 47.1083 314.075 44.209 314.832 36.0403C314.965 34.5388 314.983 33.906 315 33.0834V21.0777H299.07Z" fill="#2C2D2F"/>
</svg>
