<svg width="48" height="48" viewBox="0 0 48 48" fill="none" xmlns="http://www.w3.org/2000/svg">
<path d="M24 29.5C23.18 29.5 22.5 28.82 22.5 28V18C22.5 17.18 23.18 16.5 24 16.5C24.82 16.5 25.5 17.18 25.5 18V28C25.5 28.82 24.82 29.5 24 29.5Z" fill="#F99A9A"/>
<path d="M24 35.9991C23.88 35.9991 23.74 35.9791 23.6 35.9591C23.48 35.9391 23.36 35.8991 23.24 35.8391C23.12 35.7991 23 35.7391 22.88 35.6591C22.78 35.5791 22.68 35.4991 22.58 35.4191C22.22 35.0391 22 34.5191 22 33.9991C22 33.4791 22.22 32.9591 22.58 32.5791C22.68 32.4991 22.78 32.4191 22.88 32.3391C23 32.2591 23.12 32.1991 23.24 32.1591C23.36 32.0991 23.48 32.0591 23.6 32.0391C23.86 31.9791 24.14 31.9791 24.38 32.0391C24.52 32.0591 24.64 32.0991 24.76 32.1591C24.88 32.1991 25 32.2591 25.12 32.3391C25.22 32.4191 25.32 32.4991 25.42 32.5791C25.78 32.9591 26 33.4791 26 33.9991C26 34.5191 25.78 35.0391 25.42 35.4191C25.32 35.4991 25.22 35.5791 25.12 35.6591C25 35.7391 24.88 35.7991 24.76 35.8391C24.64 35.8991 24.52 35.9391 24.38 35.9591C24.26 35.9791 24.12 35.9991 24 35.9991Z" fill="#F99A9A"/>
<path d="M36.1199 44.3197H11.88C7.97995 44.3197 4.99995 42.8997 3.47995 40.3397C1.97995 37.7797 2.17995 34.4797 4.07995 31.0597L16.2 9.25969C18.2 5.65969 20.96 3.67969 24 3.67969C27.04 3.67969 29.8 5.65969 31.8 9.25969L43.9199 31.0797C45.8199 34.4997 46.04 37.7797 44.52 40.3597C43 42.8997 40.0199 44.3197 36.1199 44.3197ZM24 6.67969C22.12 6.67969 20.28 8.11969 18.82 10.7197L6.71995 32.5397C5.35995 34.9797 5.13995 37.2197 6.07995 38.8397C7.01995 40.4597 9.09995 41.3397 11.9 41.3397H36.1399C38.9399 41.3397 40.9999 40.4597 41.9599 38.8397C42.9199 37.2197 42.68 34.9997 41.32 32.5397L29.18 10.7197C27.72 8.11969 25.88 6.67969 24 6.67969Z" fill="#F99A9A"/>
</svg>
