<svg width="48" height="48" viewBox="0 0 48 48" fill="none" xmlns="http://www.w3.org/2000/svg">
<path d="M30 45.5H18C7.14 45.5 2.5 40.86 2.5 30V18C2.5 7.14 7.14 2.5 18 2.5H30C40.86 2.5 45.5 7.14 45.5 18V30C45.5 40.86 40.86 45.5 30 45.5ZM18 5.5C8.78 5.5 5.5 8.78 5.5 18V30C5.5 39.22 8.78 42.5 18 42.5H30C39.22 42.5 42.5 39.22 42.5 30V18C42.5 8.78 39.22 5.5 30 5.5H18Z" fill="#48A0FF"/>
<path d="M21.1589 31.1592C20.7589 31.1592 20.3789 30.9992 20.0989 30.7192L14.4389 25.0592C13.8589 24.4792 13.8589 23.5192 14.4389 22.9392C15.0189 22.3592 15.9789 22.3592 16.5589 22.9392L21.1589 27.5392L31.4389 17.2592C32.0189 16.6792 32.9789 16.6792 33.5589 17.2592C34.1389 17.8392 34.1389 18.7992 33.5589 19.3792L22.2189 30.7192C21.9389 30.9992 21.5589 31.1592 21.1589 31.1592Z" fill="#48A0FF"/>
</svg>
